<svg xmlns="http://www.w3.org/2000/svg" width="36" height="29" viewBox="0 0 36 29">
  <metadata><?xpacket begin="﻿" id="W5M0MpCehiHzreSzNTczkc9d"?>
<x:xmpmeta xmlns:x="adobe:ns:meta/" x:xmptk="Adobe XMP Core 5.6-c138 79.159824, 2016/09/14-01:09:01        ">
   <rdf:RDF xmlns:rdf="http://www.w3.org/1999/02/22-rdf-syntax-ns#">
      <rdf:Description rdf:about=""/>
   </rdf:RDF>
</x:xmpmeta>
                                                                                                    
                                                                                                    
                                                                                                    
                                                                                                    
                                                                                                    
                                                                                                    
                                                                                                    
                                                                                                    
                                                                                                    
                                                                                                    
                                                                                                    
                                                                                                    
                                                                                                    
                                                                                                    
                                                                                                    
                                                                                                    
                                                                                                    
                                                                                                    
                                                                                                    
                                                                                                    
                           
<?xpacket end="w"?></metadata>
<defs>
    <style>
      .cls-1 {
        fill-rule: evenodd;
      }
    </style>
  </defs>
  <path id="_" data-name="&lt;" class="cls-1" d="M3230,2007.49a1.733,1.733,0,0,1,.52-1.28l12.58-12.69a1.713,1.713,0,0,1,1.27-.52,1.772,1.772,0,0,1,1.81,1.72v0.1a1.833,1.833,0,0,1-.51,1.28l-9.53,9.59h28.05a1.7,1.7,0,0,1,1.27.54,1.819,1.819,0,0,1,.54,1.28,1.739,1.739,0,0,1-.54,1.28,1.778,1.778,0,0,1-1.27.54h-28.05l9.55,9.59a1.82,1.82,0,0,1-1.2,3.08h-0.1a1.727,1.727,0,0,1-1.27-.52l-12.58-12.67a1.781,1.781,0,0,1-.54-1.32h0Zm0,0" transform="translate(-3230 -1993)"/>
</svg>
